<svg width="24" height="24" viewBox="0 0 24 24" fill="none" xmlns="http://www.w3.org/2000/svg">
<path d="M12 2C17.523 2 22 6.477 22 12C22 17.523 17.523 22 12 22H4C3.46957 22 2.96086 21.7893 2.58579 21.4142C2.21071 21.0391 2 20.5304 2 20V12C2 6.477 6.477 2 12 2ZM12 4C9.87827 4 7.84344 4.84285 6.34315 6.34315C4.84285 7.84344 4 9.87827 4 12V20H12C14.1217 20 16.1566 19.1571 17.6569 17.6569C19.1571 16.1566 20 14.1217 20 12C20 9.87827 19.1571 7.84344 17.6569 6.34315C16.1566 4.84285 14.1217 4 12 4Z" fill="#D1D1D1"/>
<path d="M12.7218 8.92674C12.5343 8.73921 12.2799 8.63385 12.0147 8.63385C11.7495 8.63385 11.4951 8.73921 11.3076 8.92674C11.12 9.11428 11.0147 9.36863 11.0147 9.63385V11.6338H9.01469C8.74948 11.6338 8.49512 11.7392 8.30758 11.9267C8.12005 12.1143 8.01469 12.3686 8.01469 12.6338C8.01469 12.8991 8.12005 13.1534 8.30758 13.341C8.49512 13.5285 8.74948 13.6338 9.01469 13.6338H11.0147V15.6338C11.0147 15.8991 11.12 16.1534 11.3076 16.341C11.4951 16.5285 11.7495 16.6338 12.0147 16.6338C12.2799 16.6338 12.5343 16.5285 12.7218 16.341C12.9093 16.1534 13.0147 15.8991 13.0147 15.6338V13.6338H15.0147C15.2799 13.6338 15.5343 13.5285 15.7218 13.341C15.9093 13.1534 16.0147 12.8991 16.0147 12.6338C16.0147 12.3686 15.9093 12.1143 15.7218 11.9267C15.5343 11.7392 15.2799 11.6338 15.0147 11.6338H13.0147V9.63385C13.0147 9.36863 12.9093 9.11428 12.7218 8.92674Z" fill="#D1D1D1"/>
</svg>
