<svg width="29" height="26" viewBox="0 0 29 26" fill="none" xmlns="http://www.w3.org/2000/svg">
<path fill-rule="evenodd" clip-rule="evenodd" d="M21.8756 0.34375C23.7404 0.34375 25.5288 1.08454 26.8474 2.40316C28.166 3.72177 28.9068 5.5102 28.9068 7.375V18.625C28.9068 20.4898 28.166 22.2782 26.8474 23.5968C25.5288 24.9155 23.7404 25.6562 21.8756 25.6562H2.18805C1.81509 25.6562 1.4574 25.5081 1.19368 25.2444C0.929957 24.9806 0.781799 24.623 0.781799 24.25V7.375C0.781799 5.5102 1.52259 3.72177 2.8412 2.40316C4.15982 1.08454 5.94825 0.34375 7.81305 0.34375H21.8756ZM10.6256 10.1875C10.2811 10.1875 9.94867 10.314 9.69128 10.5429C9.43388 10.7718 9.26944 11.0871 9.22914 11.4292L9.2193 11.5938V14.4062C9.2197 14.7647 9.35694 15.1094 9.60299 15.37C9.84904 15.6307 10.1853 15.7875 10.5431 15.8085C10.9009 15.8295 11.2533 15.7131 11.5281 15.4831C11.803 15.253 11.9796 14.9267 12.022 14.5708L12.0318 14.4062V11.5938C12.0318 11.2208 11.8836 10.8631 11.6199 10.5994C11.3562 10.3357 10.9985 10.1875 10.6256 10.1875ZM19.0631 10.1875C18.6901 10.1875 18.3324 10.3357 18.0687 10.5994C17.805 10.8631 17.6568 11.2208 17.6568 11.5938V14.4062C17.6568 14.7792 17.805 15.1369 18.0687 15.4006C18.3324 15.6643 18.6901 15.8125 19.0631 15.8125C19.436 15.8125 19.7937 15.6643 20.0574 15.4006C20.3211 15.1369 20.4693 14.7792 20.4693 14.4062V11.5938C20.4693 11.2208 20.3211 10.8631 20.0574 10.5994C19.7937 10.3357 19.436 10.1875 19.0631 10.1875Z" fill="white"/>
</svg>
